<svg width="1280" height="420" viewBox="0 0 1280 420" fill="none" xmlns="http://www.w3.org/2000/svg">
  <defs>
    <linearGradient id="bg" x1="90" y1="40" x2="1180" y2="360" gradientUnits="userSpaceOnUse">
      <stop stop-color="#0B1020"/>
      <stop offset="1" stop-color="#151B33"/>
    </linearGradient>
    <linearGradient id="accent" x1="260" y1="70" x2="980" y2="330" gradientUnits="userSpaceOnUse">
      <stop stop-color="#22D3EE"/>
      <stop offset="0.5" stop-color="#8B5CF6"/>
      <stop offset="1" stop-color="#F59E0B"/>
    </linearGradient>
    <filter id="glow" x="0" y="0" width="1280" height="420" filterUnits="userSpaceOnUse" color-interpolation-filters="sRGB">
      <feGaussianBlur stdDeviation="24" result="blur"/>
      <feBlend in="SourceGraphic" in2="blur" mode="screen"/>
    </filter>
  </defs>

  <rect x="20" y="20" width="1240" height="380" rx="28" fill="url(#bg)" stroke="rgba(255,255,255,0.08)"/>
  <rect x="20" y="20" width="1240" height="380" rx="28" fill="url(#accent)" opacity="0.08"/>

  <g opacity="0.22" filter="url(#glow)">
    <circle cx="1030" cy="110" r="84" fill="#22D3EE"/>
    <circle cx="1110" cy="290" r="96" fill="#8B5CF6"/>
    <circle cx="930" cy="250" r="72" fill="#F59E0B"/>
  </g>

  <g opacity="0.8">
    <path d="M786 111H1136" stroke="#22D3EE" stroke-width="2" stroke-dasharray="8 8"/>
    <path d="M756 166H1128" stroke="#8B5CF6" stroke-width="2" stroke-dasharray="8 8"/>
    <path d="M786 221H1138" stroke="#F59E0B" stroke-width="2" stroke-dasharray="8 8"/>
    <path d="M756 276H1106" stroke="#22D3EE" stroke-width="2" stroke-dasharray="8 8"/>
  </g>

  <g>
    <rect x="792" y="86" width="118" height="34" rx="17" fill="#0F172A" stroke="#22D3EE"/>
    <text x="851" y="108" text-anchor="middle" fill="#E2E8F0" font-size="16" font-family="Segoe UI, Arial, sans-serif">Prompt</text>

    <rect x="932" y="141" width="134" height="34" rx="17" fill="#0F172A" stroke="#8B5CF6"/>
    <text x="999" y="163" text-anchor="middle" fill="#E2E8F0" font-size="16" font-family="Segoe UI, Arial, sans-serif">JSON Spec</text>

    <rect x="832" y="196" width="154" height="34" rx="17" fill="#0F172A" stroke="#F59E0B"/>
    <text x="909" y="218" text-anchor="middle" fill="#E2E8F0" font-size="16" font-family="Segoe UI, Arial, sans-serif">Integrity Repair</text>

    <rect x="954" y="251" width="130" height="34" rx="17" fill="#0F172A" stroke="#22D3EE"/>
    <text x="1019" y="273" text-anchor="middle" fill="#E2E8F0" font-size="16" font-family="Segoe UI, Arial, sans-serif">Viewport</text>
  </g>

  <text x="90" y="118" fill="#F8FAFC" font-size="22" font-family="Segoe UI, Arial, sans-serif">IronEngine 3D Creator</text>
  <text x="90" y="182" fill="#F8FAFC" font-size="52" font-weight="700" font-family="Segoe UI, Arial, sans-serif">Prompt-to-3D,</text>
  <text x="90" y="240" fill="#F8FAFC" font-size="52" font-weight="700" font-family="Segoe UI, Arial, sans-serif">repaired before export.</text>
  <text x="90" y="292" fill="#94A3B8" font-size="22" font-family="Segoe UI, Arial, sans-serif">Structured generation. Deterministic integrity checks. Live desktop editing.</text>

  <g>
    <rect x="90" y="326" width="164" height="34" rx="17" fill="#0F172A" stroke="#334155"/>
    <text x="172" y="348" text-anchor="middle" fill="#E2E8F0" font-size="15" font-family="Segoe UI, Arial, sans-serif">PySide6 + Open3D</text>

    <rect x="268" y="326" width="162" height="34" rx="17" fill="#0F172A" stroke="#334155"/>
    <text x="349" y="348" text-anchor="middle" fill="#E2E8F0" font-size="15" font-family="Segoe UI, Arial, sans-serif">Ollama + Cloud LLMs</text>

    <rect x="444" y="326" width="154" height="34" rx="17" fill="#0F172A" stroke="#334155"/>
    <text x="521" y="348" text-anchor="middle" fill="#E2E8F0" font-size="15" font-family="Segoe UI, Arial, sans-serif">PyPI Available</text>
  </g>
</svg>
